<svg width="31" height="21" viewBox="0 0 31 21" fill="none" xmlns="http://www.w3.org/2000/svg">
<path fill-rule="evenodd" clip-rule="evenodd" d="M10.0007 6.64489C10.12 6.74068 10.2147 6.85448 10.2793 6.97977C10.3439 7.10505 10.3771 7.23937 10.3771 7.37501C10.3771 7.51066 10.3439 7.64497 10.2793 7.77026C10.2147 7.89554 10.12 8.00934 10.0007 8.10514L3.21779 13.5625L10.0007 19.0199C10.2413 19.2135 10.3765 19.4762 10.3765 19.75C10.3765 20.0239 10.2413 20.2865 10.0007 20.4801C9.76014 20.6738 9.43384 20.7826 9.0936 20.7826C8.75336 20.7826 8.42706 20.6738 8.18647 20.4801L0.498974 14.2926C0.379655 14.1968 0.28499 14.083 0.220398 13.9578C0.155807 13.8325 0.122559 13.6982 0.122559 13.5625C0.122559 13.4269 0.155807 13.2926 0.220398 13.1673C0.28499 13.042 0.379655 12.9282 0.498974 12.8324L8.18647 6.64489C8.30549 6.54885 8.44688 6.47266 8.60254 6.42067C8.7582 6.36868 8.92507 6.34192 9.0936 6.34192C9.26213 6.34192 9.429 6.36868 9.58466 6.42067C9.74032 6.47266 9.88171 6.54885 10.0007 6.64489V6.64489Z" fill="white"/>
<path fill-rule="evenodd" clip-rule="evenodd" d="M29.5938 0.15625C29.9336 0.15625 30.2595 0.264899 30.4997 0.458296C30.74 0.651693 30.875 0.913995 30.875 1.1875V9.4375C30.875 10.805 30.2001 12.1165 28.9987 13.0835C27.7972 14.0505 26.1678 14.5938 24.4688 14.5938H2.6875C2.34769 14.5938 2.0218 14.4851 1.78152 14.2917C1.54124 14.0983 1.40625 13.836 1.40625 13.5625C1.40625 13.289 1.54124 13.0267 1.78152 12.8333C2.0218 12.6399 2.34769 12.5312 2.6875 12.5312H24.4688C25.4882 12.5312 26.4658 12.2053 27.1867 11.6251C27.9075 11.0449 28.3125 10.258 28.3125 9.4375V1.1875C28.3125 0.913995 28.4475 0.651693 28.6878 0.458296C28.928 0.264899 29.2539 0.15625 29.5938 0.15625V0.15625Z" fill="white"/>
</svg>
