<svg width="20" height="20" viewBox="0 0 20 20" fill="none" xmlns="http://www.w3.org/2000/svg">
<path fill-rule="evenodd" clip-rule="evenodd" d="M17.5 1.25H2.5C2.16848 1.25 1.85054 1.3817 1.61612 1.61612C1.3817 1.85054 1.25 2.16848 1.25 2.5V17.5C1.25 17.8315 1.3817 18.1495 1.61612 18.3839C1.85054 18.6183 2.16848 18.75 2.5 18.75H17.5C17.8315 18.75 18.1495 18.6183 18.3839 18.3839C18.6183 18.1495 18.75 17.8315 18.75 17.5V2.5C18.75 2.16848 18.6183 1.85054 18.3839 1.61612C18.1495 1.3817 17.8315 1.25 17.5 1.25ZM2.5 0C1.83696 0 1.20107 0.263392 0.732233 0.732233C0.263392 1.20107 0 1.83696 0 2.5L0 17.5C0 18.163 0.263392 18.7989 0.732233 19.2678C1.20107 19.7366 1.83696 20 2.5 20H17.5C18.163 20 18.7989 19.7366 19.2678 19.2678C19.7366 18.7989 20 18.163 20 17.5V2.5C20 1.83696 19.7366 1.20107 19.2678 0.732233C18.7989 0.263392 18.163 0 17.5 0L2.5 0Z" fill="black"/>
<path d="M11.1624 8.23499L8.29994 8.59374L8.19744 9.06874L8.75994 9.17249C9.12744 9.25999 9.19994 9.39249 9.11994 9.75874L8.19744 14.0937C7.95494 15.215 8.32869 15.7425 9.20744 15.7425C9.88869 15.7425 10.6799 15.4275 11.0387 14.995L11.1487 14.475C10.8987 14.695 10.5337 14.7825 10.2912 14.7825C9.94744 14.7825 9.82244 14.5412 9.91119 14.1162L11.1624 8.23499Z" fill="black"/>
<path d="M10 6.875C10.6904 6.875 11.25 6.31536 11.25 5.625C11.25 4.93464 10.6904 4.375 10 4.375C9.30964 4.375 8.75 4.93464 8.75 5.625C8.75 6.31536 9.30964 6.875 10 6.875Z" fill="black"/>
</svg>
